<?xml version="1.0" encoding="UTF-8" standalone="no"?>
<!DOCTYPE svg PUBLIC "-//W3C//DTD SVG 1.1//EN" "http://www.w3.org/Graphics/SVG/1.1/DTD/svg11.dtd">
<svg version="1.1" xmlns="http://www.w3.org/2000/svg" xmlns:xlink="http://www.w3.org/1999/xlink" preserveAspectRatio="xMidYMid meet" viewBox="0 0 200 200" width="200" height="200"><defs><path d="M114.35 26.05L49.83 26.05L49.83 177.55L162.03 177.55L162.03 66.84L178.86 66.84L178.86 195.03L33 195.03L33 8.57L114.35 8.57L114.35 26.05ZM125.57 56.7L125.57 8.57L178.86 56.7L125.57 56.7Z" id="abXzz1Fcp"></path><path d="M111.08 66.47L111.13 66.47L111.17 66.48L111.22 66.48L111.26 66.49L111.3 66.51L111.34 66.52L111.38 66.54L111.42 66.55L111.46 66.57L111.5 66.59L111.54 66.61L111.58 66.63L111.61 66.66L111.65 66.68L111.68 66.71L111.71 66.74L111.74 66.77L111.77 66.8L111.8 66.83L111.83 66.86L111.86 66.9L111.88 66.93L111.91 66.97L111.93 67.01L111.95 67.05L111.97 67.08L111.99 67.12L112.01 67.17L112.03 67.21L112.04 67.25L112.05 67.29L112.07 67.34L112.07 67.38L112.08 67.43L112.09 67.47L112.09 67.52L112.1 67.57L112.1 67.61L112.1 90.67L134.15 90.67L134.2 90.67L134.24 90.68L134.29 90.68L134.33 90.69L134.37 90.7L134.42 90.71L134.46 90.72L134.5 90.73L134.54 90.75L134.58 90.76L134.62 90.78L134.66 90.8L134.7 90.82L134.73 90.84L134.77 90.87L134.8 90.89L134.84 90.92L134.87 90.95L134.9 90.98L134.93 91.01L134.96 91.04L134.99 91.07L135.02 91.11L135.04 91.14L135.07 91.18L135.09 91.22L135.11 91.26L135.13 91.3L135.15 91.34L135.17 91.38L135.18 91.42L135.2 91.46L135.21 91.5L135.22 91.55L135.23 91.59L135.24 91.64L135.25 91.68L135.25 91.73L135.25 91.78L135.26 91.82L135.26 110.27L135.25 110.32L135.25 110.37L135.25 110.41L135.24 110.46L135.23 110.5L135.22 110.55L135.21 110.59L135.2 110.64L135.18 110.68L135.17 110.72L135.15 110.76L135.13 110.8L135.11 110.84L135.09 110.88L135.07 110.92L135.04 110.95L135.02 110.99L134.99 111.02L134.96 111.05L134.93 111.09L134.9 111.12L134.87 111.15L134.84 111.17L134.8 111.2L134.77 111.23L134.73 111.25L134.7 111.27L134.66 111.3L134.62 111.31L134.58 111.33L134.54 111.35L134.5 111.37L134.46 111.38L134.42 111.39L134.37 111.4L134.33 111.41L134.29 111.42L134.24 111.42L134.2 111.42L134.15 111.42L112.1 111.42L112.1 134.48L112.1 134.53L112.09 134.58L112.09 134.62L112.08 134.67L112.07 134.71L112.07 134.76L112.05 134.8L112.04 134.85L112.03 134.89L112.01 134.93L111.99 134.97L111.97 135.01L111.95 135.05L111.93 135.09L111.91 135.13L111.88 135.16L111.86 135.2L111.83 135.23L111.8 135.26L111.77 135.3L111.74 135.33L111.71 135.36L111.68 135.38L111.65 135.41L111.61 135.44L111.58 135.46L111.54 135.48L111.5 135.51L111.46 135.53L111.42 135.54L111.38 135.56L111.34 135.58L111.3 135.59L111.26 135.6L111.22 135.61L111.17 135.62L111.13 135.63L111.08 135.63L111.04 135.63L110.99 135.63L93.35 135.63L93.3 135.63L93.26 135.63L93.22 135.63L93.17 135.62L93.13 135.61L93.09 135.6L93.04 135.59L93 135.58L92.96 135.56L92.92 135.54L92.88 135.53L92.84 135.51L92.81 135.48L92.77 135.46L92.73 135.44L92.7 135.41L92.67 135.38L92.63 135.36L92.6 135.33L92.57 135.3L92.54 135.26L92.51 135.23L92.49 135.2L92.46 135.16L92.44 135.13L92.41 135.09L92.39 135.05L92.37 135.01L92.35 134.97L92.33 134.93L92.32 134.89L92.3 134.85L92.29 134.8L92.28 134.76L92.27 134.71L92.26 134.67L92.26 134.62L92.25 134.58L92.25 134.53L92.25 134.48L92.25 111.42L70.19 111.42L70.15 111.42L70.1 111.42L70.06 111.42L70.01 111.41L69.97 111.4L69.93 111.39L69.89 111.38L69.84 111.37L69.8 111.35L69.76 111.33L69.72 111.31L69.69 111.3L69.65 111.27L69.61 111.25L69.58 111.23L69.54 111.2L69.51 111.17L69.48 111.15L69.44 111.12L69.41 111.09L69.38 111.05L69.36 111.02L69.33 110.99L69.3 110.95L69.28 110.92L69.26 110.88L69.23 110.84L69.21 110.8L69.19 110.76L69.18 110.72L69.16 110.68L69.15 110.64L69.13 110.59L69.12 110.55L69.11 110.5L69.1 110.46L69.1 110.41L69.09 110.37L69.09 110.32L69.09 110.27L69.09 91.82L69.09 91.78L69.09 91.73L69.1 91.68L69.1 91.64L69.11 91.59L69.12 91.55L69.13 91.5L69.15 91.46L69.16 91.42L69.18 91.38L69.19 91.34L69.21 91.3L69.23 91.26L69.26 91.22L69.28 91.18L69.3 91.14L69.33 91.11L69.36 91.07L69.38 91.04L69.41 91.01L69.44 90.98L69.48 90.95L69.51 90.92L69.54 90.89L69.58 90.87L69.61 90.84L69.65 90.82L69.69 90.8L69.72 90.78L69.76 90.76L69.8 90.75L69.84 90.73L69.89 90.72L69.93 90.71L69.97 90.7L70.01 90.69L70.06 90.68L70.1 90.68L70.15 90.67L70.19 90.67L92.25 90.67L92.25 67.61L92.25 67.57L92.25 67.52L92.26 67.47L92.26 67.43L92.27 67.38L92.28 67.34L92.29 67.29L92.3 67.25L92.32 67.21L92.33 67.17L92.35 67.12L92.37 67.08L92.39 67.05L92.41 67.01L92.44 66.97L92.46 66.93L92.49 66.9L92.51 66.86L92.54 66.83L92.57 66.8L92.6 66.77L92.63 66.74L92.67 66.71L92.7 66.68L92.73 66.66L92.77 66.63L92.81 66.61L92.84 66.59L92.88 66.57L92.92 66.55L92.96 66.54L93 66.52L93.04 66.51L93.09 66.49L93.13 66.48L93.17 66.48L93.22 66.47L93.26 66.47L93.3 66.46L93.35 66.46L110.99 66.46L111.04 66.46L111.08 66.47Z" id="a5hcinukL"></path></defs><g><g><g><use xlink:href="#abXzz1Fcp" opacity="1" fill="#285f5c" fill-opacity="1"></use></g><g><use xlink:href="#a5hcinukL" opacity="1" fill="#283d5f" fill-opacity="1"></use></g></g></g></svg>